Coordinates
version=1
nRows=11
nColumns=33
inDegrees=yes

Units are S.I. units (second, meters, Newtons, ...)
Angles are in degrees.

endheader
time	ground_thorax_rot_x	ground_thorax_rot_y	ground_thorax_rot_z	ground_thorax_tx	ground_thorax_ty	ground_thorax_tz	clav_prot_r	clav_elev_r	scapula_abduction_r	scapula_elevation_r	scapula_upward_rot_r	scapula_winging_r	shoulder_elv_r	plane_of_elev_r	axial_rot_r	elbow_flexion_r	pro_sup_r	wrist_flex_r	wrist_dev_r	clav_prot_l	clav_elev_l	scapula_abduction_l	scapula_elevation_l	scapula_upward_rot_l	scapula_winging_l	shoulder_elv_l	plane_of_elev_l	axial_rot_l	elbow_flexion_l	pro_sup_l	wrist_flex_l	wrist_dev_l	
8.8600	26.689993	30.114164	42.409971	-84.731305	849.172917	-42.642210	12.774132	34.278750	27.824274	45.000000	-45.000000	-1887.498447	-1725.919872	24.297578	180.000000	1081.799668	-186.151477	15.607108	15.418342	-7.258830	-45.000000	-40.724781	45.000000	-45.000000	-3855.175540	-2079.758405	26.771162	32.857400	-10.865856	37.708820	14.649573	-20.157499	
8.8700	26.754307	30.033861	42.210636	-86.092683	849.553373	-42.678206	12.728577	34.248071	27.713803	45.000000	-45.000000	-1887.519643	-1725.889808	24.281448	180.000000	1081.850781	-185.999081	15.737546	15.399802	-7.217937	-45.000000	-40.748600	45.000000	-45.000000	-3855.117645	-2079.755283	26.744154	32.710683	-10.879352	37.641412	14.626900	-20.251043	
8.8800	26.809089	29.953048	42.022907	-87.433793	849.920978	-42.724035	12.685983	34.218959	27.597265	45.000000	-45.000000	-1887.525376	-1725.853100	24.253803	180.000000	1081.896916	-185.817944	15.865449	15.367371	-7.171538	-45.000000	-40.766388	45.000000	-45.000000	-3855.063694	-2079.744381	26.709419	32.557800	-10.883048	37.582036	14.592774	-20.340027	
8.8900	26.863003	29.869246	41.836105	-88.754848	850.275520	-42.780980	12.640115	34.190225	27.487771	45.000000	-45.000000	-1887.541646	-1725.822586	24.235920	180.000000	1081.953379	-185.614960	15.991819	15.335272	-7.128635	-45.000000	-40.789067	45.000000	-45.000000	-3855.003203	-2079.741423	26.680191	32.406493	-10.880625	37.529548	14.552518	-20.433991	
8.9000	26.912615	29.783061	41.654338	-90.056775	850.616763	-42.849714	12.599724	34.162405	27.367072	45.000000	-45.000000	-1887.543947	-1725.781347	24.214055	180.000000	1082.002577	-185.396719	16.113956	15.292760	-7.082833	-45.000000	-40.804368	45.000000	-45.000000	-3854.948507	-2079.731878	26.647629	32.251871	-10.871439	37.483664	14.502178	-20.523506	
8.9100	26.964337	29.694045	41.470589	-91.340659	850.944438	-42.930233	12.557284	34.135567	27.248882	45.000000	-45.000000	-1887.559114	-1725.743150	24.205012	180.000000	1082.057248	-185.169044	16.235500	15.252658	-7.039233	-45.000000	-40.821640	45.000000	-45.000000	-3854.888437	-2079.728203	26.625825	32.101986	-10.858485	37.443646	14.447915	-20.619043	
8.9200	27.016486	29.603555	41.286620	-92.607535	851.257875	-43.021782	12.519068	34.108950	27.122901	45.000000	-45.000000	-1887.567502	-1725.694394	24.192336	180.000000	1082.104551	-184.936373	16.353859	15.206940	-6.996303	-45.000000	-40.834129	45.000000	-45.000000	-3854.835681	-2079.719957	26.606468	31.952751	-10.838620	37.409152	14.385956	-20.712653	
8.9300	27.074355	29.510109	41.095373	-93.858156	851.555431	-43.123045	12.479883	34.083559	26.996859	45.000000	-45.000000	-1887.590676	-1725.647586	24.194418	180.000000	1082.152899	-184.701909	16.473403	15.166799	-6.956736	-45.000000	-40.848844	45.000000	-45.000000	-3854.780277	-2079.718812	26.599551	31.808558	-10.819107	37.380426	14.323025	-20.812322	
8.9400	27.121535	29.420503	40.922857	-95.092914	851.833703	-43.232376	12.443800	34.057474	26.874921	45.000000	-45.000000	-1887.605715	-1725.599688	24.179549	180.000000	1082.200466	-184.464992	16.586431	15.122296	-6.918507	-45.000000	-40.865849	45.000000	-45.000000	-3854.726788	-2079.709248	26.584482	31.664512	-10.794095	37.357974	14.254192	-20.906274	
8.9500	27.164134	29.332025	40.760826	-96.311842	852.085722	-43.348123	12.405932	34.033535	26.757311	45.000000	-45.000000	-1887.629749	-1725.556174	24.169587	180.000000	1082.254793	-184.222573	16.700136	15.082446	-6.877144	-45.000000	-40.890864	45.000000	-45.000000	-3854.665978	-2079.703416	26.571558	31.523430	-10.768142	37.342397	14.186218	-21.003769	
8.9600	27.189464	29.250452	40.627381	-97.514134	852.300550	-43.468763	12.371341	34.006219	26.641892	45.000000	-45.000000	-1887.647760	-1725.513575	24.146090	180.000000	1082.313658	-183.968187	16.808942	15.042761	-6.832433	-45.000000	-40.925919	45.000000	-45.000000	-3854.601838	-2079.689865	26.548337	31.380117	-10.737811	37.334756	14.116088	-21.094461	
